name ./resultDataOpenSim/trcMotMarkerGrf/sub10/grf-14-02.mot
datacolumns 19
datarows 27
range 0.98000000 1.08400000
endheader

                time	     ground_force_vx	     ground_force_vy	     ground_force_vz	     ground_force_px	     ground_force_py	     ground_force_pz	   l_ground_force_vx	   l_ground_force_vy	   l_ground_force_vz	   l_ground_force_px	   l_ground_force_py	   l_ground_force_pz	     ground_torque_x	     ground_torque_y	     ground_torque_z	   l_ground_torque_x	   l_ground_torque_y	   l_ground_torque_z	
          0.98000000	          0.00000000	          0.00000000	          0.00000000	          0.00000000	          0.00000000	          0.00000000	         56.03775176	        506.01471310	         13.23434405	          0.04527595	         -0.07500100	         -0.06844071	          0.00000000	          0.00000000	          0.00000000	          0.00000000	         -3.27317523	          0.00000000	
          0.98400000	          0.00000000	          0.00000000	          0.00000000	          0.00000000	          0.00000000	          0.00000000	         61.14527505	        516.04133097	         12.86804187	          0.04593525	         -0.07500113	         -0.06757891	          0.00000000	          0.00000000	          0.00000000	          0.00000000	         -3.56557425	          0.00000000	
          0.98800000	          0.00000000	          0.00000000	          0.00000000	          0.00000000	          0.00000000	          0.00000000	         66.24360381	        526.65848070	         12.25466150	          0.04661736	         -0.07500185	         -0.06669275	          0.00000000	          0.00000000	          0.00000000	          0.00000000	         -3.86955849	          0.00000000	
          0.99200000	          0.00000000	          0.00000000	          0.00000000	          0.00000000	          0.00000000	          0.00000000	         71.24528388	        537.67610624	         11.42042530	          0.04731607	         -0.07500200	         -0.06579083	          0.00000000	          0.00000000	          0.00000000	          0.00000000	         -4.18282601	          0.00000000	
          0.99600000	          0.00000000	          0.00000000	          0.00000000	          0.00000000	          0.00000000	          0.00000000	         76.07835619	        548.89252655	         10.42144549	          0.04798208	         -0.07500200	         -0.06490064	          0.00000000	          0.00000000	          0.00000000	          0.00000000	         -4.50142210	          0.00000000	
          1.00000000	          0.00000000	          0.00000000	          0.00000000	          0.00000000	          0.00000000	          0.00000000	         80.69309318	        560.09405817	          9.30374229	          0.04859095	         -0.07500200	         -0.06403392	          0.00000000	          0.00000000	          0.00000000	          0.00000000	         -4.82017627	          0.00000000	
          1.00400000	          0.00000000	          0.00000000	          0.00000000	          0.00000000	          0.00000000	          0.00000000	         85.06379025	        571.07790901	          8.08427163	          0.04915852	         -0.07500200	         -0.06318618	          0.00000000	          0.00000000	          0.00000000	          0.00000000	         -5.13351638	          0.00000000	
          1.00800000	          0.00000000	          0.00000000	          0.00000000	          0.00000000	          0.00000000	          0.00000000	         89.18425620	        581.72295535	          6.76501256	          0.04973281	         -0.07500200	         -0.06233879	          0.00000000	          0.00000000	          0.00000000	          0.00000000	         -5.43629212	          0.00000000	
          1.01200000	          0.00000000	          0.00000000	          0.00000000	          0.00000000	          0.00000000	          0.00000000	         93.07761439	        592.03496637	          5.35525948	          0.05035205	         -0.07500200	         -0.06145773	          0.00000000	          0.00000000	          0.00000000	          0.00000000	         -5.72421633	          0.00000000	
          1.01600000	          0.00000000	          0.00000000	          0.00000000	          0.00000000	          0.00000000	          0.00000000	         96.81534030	        602.08895994	          3.87720316	          0.05101500	         -0.07500200	         -0.06052207	          0.00000000	          0.00000000	          0.00000000	          0.00000000	         -5.99384825	          0.00000000	
          1.02000000	          0.00000000	          0.00000000	          0.00000000	          0.00000000	          0.00000000	          0.00000000	        100.50178095	        611.90891800	          2.35328339	          0.05170681	         -0.07500200	         -0.05954122	          0.00000000	          0.00000000	          0.00000000	          0.00000000	         -6.24234458	          0.00000000	
          1.02400000	          0.00000000	          0.00000000	          0.00000000	          0.00000000	          0.00000000	          0.00000000	        104.23523495	        621.40218243	          0.78898442	          0.05241502	         -0.07500200	         -0.05854018	          0.00000000	          0.00000000	          0.00000000	          0.00000000	         -6.46719504	          0.00000000	
          1.02800000	          0.00000000	          0.00000000	          0.00000000	          0.00000000	          0.00000000	          0.00000000	        108.09352814	        630.40287332	         -0.83196449	          0.05310216	         -0.07500200	         -0.05756195	          0.00000000	          0.00000000	          0.00000000	          0.00000000	         -6.66600422	          0.00000000	
          1.03200000	          0.00000000	          0.00000000	          0.00000000	          0.00000000	          0.00000000	          0.00000000	        112.13499214	        638.75538039	         -2.53501034	          0.05369884	         -0.07500200	         -0.05666124	          0.00000000	          0.00000000	          0.00000000	          0.00000000	         -6.83632204	          0.00000000	
          1.03600000	          0.00000000	          0.00000000	          0.00000000	          0.00000000	          0.00000000	          0.00000000	        116.39231685	        646.35228828	         -4.33402870	          0.05414581	         -0.07500147	         -0.05587427	          0.00000000	          0.00000000	          0.00000000	          0.00000000	         -6.97555519	          0.00000000	
          1.04000000	          0.00000000	          0.00000000	          0.00000000	          0.00000000	          0.00000000	          0.00000000	        120.86139387	        653.10274454	         -6.21228545	          0.05443007	         -0.07500107	         -0.05520203	          0.00000000	          0.00000000	          0.00000000	          0.00000000	         -7.08102299	          0.00000000	
          1.04400000	          0.00000000	          0.00000000	          0.00000000	          0.00000000	          0.00000000	          0.00000000	        125.49313390	        658.87547531	         -8.11508745	          0.05460347	         -0.07500100	         -0.05461619	          0.00000000	          0.00000000	          0.00000000	          0.00000000	         -7.15019991	          0.00000000	
          1.04800000	          0.00000000	          0.00000000	          0.00000000	          0.00000000	          0.00000000	          0.00000000	        130.20694788	        663.49282058	         -9.96562609	          0.05475522	         -0.07500100	         -0.05407763	          0.00000000	          0.00000000	          0.00000000	          0.00000000	         -7.18109921	          0.00000000	
          1.05200000	          0.00000000	          0.00000000	          0.00000000	          0.00000000	          0.00000000	          0.00000000	        134.92984507	        666.77737037	        -11.70081319	          0.05495290	         -0.07500100	         -0.05355444	          0.00000000	          0.00000000	          0.00000000	          0.00000000	         -7.17266683	          0.00000000	
          1.05600000	          0.00000000	          0.00000000	          0.00000000	          0.00000000	          0.00000000	          0.00000000	        139.62601446	        668.58511253	        -13.29954625	          0.05522088	         -0.07500100	         -0.05303421	          0.00000000	          0.00000000	          0.00000000	          0.00000000	         -7.12503943	          0.00000000	
          1.06000000	          0.00000000	          0.00000000	          0.00000000	          0.00000000	          0.00000000	          0.00000000	        144.27784360	        668.79997169	        -14.77757571	          0.05555861	         -0.07500100	         -0.05251919	          0.00000000	          0.00000000	          0.00000000	          0.00000000	         -7.03955017	          0.00000000	
          1.06400000	          0.00000000	          0.00000000	          0.00000000	          0.00000000	          0.00000000	          0.00000000	        148.83782748	        667.31446147	        -16.15893830	          0.05595380	         -0.07500100	         -0.05201341	          0.00000000	          0.00000000	          0.00000000	          0.00000000	         -6.91843427	          0.00000000	
          1.06800000	          0.00000000	          0.00000000	          0.00000000	          0.00000000	          0.00000000	          0.00000000	        153.21558184	        664.01759503	        -17.45432955	          0.05638442	         -0.07500084	         -0.05152729	          0.00000000	          0.00000000	          0.00000000	          0.00000000	         -6.76433854	          0.00000000	
          1.07200000	          0.00000000	          0.00000000	          0.00000000	          0.00000000	          0.00000000	          0.00000000	        157.30863223	        658.78182309	        -18.65416578	          0.05682059	         -0.07500036	         -0.05108665	          0.00000000	          0.00000000	          0.00000000	          0.00000000	         -6.57990353	          0.00000000	
          1.07600000	          0.00000000	          0.00000000	          0.00000000	          0.00000000	          0.00000000	          0.00000000	        161.02304463	        651.44755835	        -19.72802911	          0.05723528	         -0.07500000	         -0.05071781	          0.00000000	          0.00000000	          0.00000000	          0.00000000	         -6.36766308	          0.00000000	
          1.08000000	          0.00000000	          0.00000000	          0.00000000	          0.00000000	          0.00000000	          0.00000000	        164.26403847	        641.84828894	        -20.63687274	          0.05762998	         -0.07500000	         -0.05042684	          0.00000000	          0.00000000	          0.00000000	          0.00000000	         -6.13024407	          0.00000000	
          1.08400000	          0.00000000	          0.00000000	          0.00000000	          0.00000000	          0.00000000	          0.00000000	        166.93010013	        629.87218693	        -21.35927184	          0.05802502	         -0.07499997	         -0.05020642	          0.00000000	          0.00000000	          0.00000000	          0.00000000	         -5.87058935	          0.00000000	
